<svg width="24" height="25" viewBox="0 0 24 25" fill="none" xmlns="http://www.w3.org/2000/svg">
<path fill-rule="evenodd" clip-rule="evenodd" d="M4.67997 7.10001C4.67997 6.87723 4.76847 6.66357 4.926 6.50604C5.08353 6.34851 5.29718 6.26001 5.51997 6.26001H17.28C17.5027 6.26001 17.7164 6.34851 17.8739 6.50604C18.0315 6.66357 18.12 6.87723 18.12 7.10001C18.12 7.32279 18.0315 7.53645 17.8739 7.69398C17.7164 7.85151 17.5027 7.94001 17.28 7.94001H5.51997C5.29718 7.94001 5.08353 7.85151 4.926 7.69398C4.76847 7.53645 4.67997 7.32279 4.67997 7.10001ZM4.67997 17.18C4.67997 16.9572 4.76847 16.7436 4.926 16.586C5.08353 16.4285 5.29718 16.34 5.51997 16.34H8.87997C9.10275 16.34 9.31641 16.4285 9.47394 16.586C9.63147 16.7436 9.71997 16.9572 9.71997 17.18C9.71997 17.4028 9.63147 17.6165 9.47394 17.774C9.31641 17.9315 9.10275 18.02 8.87997 18.02H5.51997C5.29718 18.02 5.08353 17.9315 4.926 17.774C4.76847 17.6165 4.67997 17.4028 4.67997 17.18ZM4.67997 11.3C4.45718 11.3 4.24353 11.3885 4.086 11.546C3.92847 11.7036 3.83997 11.9172 3.83997 12.14C3.83997 12.3628 3.92847 12.5764 4.086 12.734C4.24353 12.8915 4.45718 12.98 4.67997 12.98H8.45997C8.68275 12.98 8.89641 12.8915 9.05394 12.734C9.21147 12.5764 9.29997 12.3628 9.29997 12.14C9.29997 11.9172 9.21147 11.7036 9.05394 11.546C8.89641 11.3885 8.68275 11.3 8.45997 11.3H4.67997ZM14.76 16.34C15.0909 16.34 15.4186 16.2748 15.7243 16.1482C16.0301 16.0215 16.3079 15.8359 16.5419 15.6019C16.7759 15.3679 16.9615 15.0901 17.0881 14.7844C17.2148 14.4786 17.28 14.1509 17.28 13.82C17.28 13.4891 17.2148 13.1614 17.0881 12.8556C16.9615 12.5499 16.7759 12.2721 16.5419 12.0381C16.3079 11.8041 16.0301 11.6185 15.7243 11.4918C15.4186 11.3652 15.0909 11.3 14.76 11.3C14.0916 11.3 13.4506 11.5655 12.9781 12.0381C12.5055 12.5107 12.24 13.1517 12.24 13.82C12.24 14.4884 12.5055 15.1293 12.9781 15.6019C13.4506 16.0745 14.0916 16.34 14.76 16.34ZM18.2644 16.1359C18.8384 15.2676 19.0695 14.2171 18.9129 13.1881C18.7563 12.1591 18.2233 11.2249 17.4171 10.5666C16.6108 9.90835 15.5889 9.57286 14.5494 9.62523C13.5099 9.67759 12.5268 10.1141 11.7909 10.8501C11.0549 11.586 10.6184 12.5691 10.566 13.6086C10.5137 14.6481 10.8491 15.6701 11.5074 16.4763C12.1657 17.2825 13.0999 17.8156 14.1289 17.9721C15.1579 18.1287 16.2084 17.8976 17.0767 17.3237L19.1401 19.3879C19.2985 19.5409 19.5107 19.6256 19.7309 19.6236C19.9512 19.6217 20.1619 19.5334 20.3176 19.3776C20.4733 19.2219 20.5617 19.0112 20.5636 18.791C20.5655 18.5707 20.4809 18.3585 20.3278 18.2001L18.2644 16.1359Z" fill="white"/>
</svg>
