<svg width="40" height="40" viewBox="0 0 40 40" fill="none" xmlns="http://www.w3.org/2000/svg">
<rect width="40" height="40" rx="10" fill="#434343"/>
<g clip-path="url(#clip0_877_41)">
<path d="M20.0041 10.9818C22.9432 10.9818 23.2912 10.9947 24.4471 11.0463C25.5213 11.0936 26.1014 11.274 26.4881 11.4244C26.9994 11.6221 27.3689 11.8627 27.7514 12.2451C28.1381 12.6318 28.3744 12.9971 28.5721 13.5084C28.7225 13.8951 28.9029 14.4795 28.9502 15.5494C29.0018 16.7096 29.0146 17.0576 29.0146 19.9924C29.0146 22.9314 29.0018 23.2795 28.9502 24.4354C28.9029 25.5096 28.7225 26.0897 28.5721 26.4764C28.3744 26.9877 28.1338 27.3572 27.7514 27.7397C27.3646 28.1264 26.9994 28.3627 26.4881 28.5604C26.1014 28.7107 25.517 28.8912 24.4471 28.9385C23.2869 28.99 22.9389 29.0029 20.0041 29.0029C17.065 29.0029 16.717 28.99 15.5611 28.9385C14.4869 28.8912 13.9068 28.7107 13.5201 28.5604C13.0088 28.3627 12.6392 28.1221 12.2568 27.7397C11.8701 27.3529 11.6338 26.9877 11.4361 26.4764C11.2857 26.0897 11.1053 25.5053 11.058 24.4354C11.0064 23.2752 10.9935 22.9271 10.9935 19.9924C10.9935 17.0533 11.0064 16.7053 11.058 15.5494C11.1053 14.4752 11.2857 13.8951 11.4361 13.5084C11.6338 12.9971 11.8744 12.6275 12.2568 12.2451C12.6435 11.8584 13.0088 11.6221 13.5201 11.4244C13.9068 11.274 14.4912 11.0936 15.5611 11.0463C16.717 10.9947 17.065 10.9818 20.0041 10.9818ZM20.0041 9.00098C17.0178 9.00098 16.6439 9.01387 15.4709 9.06543C14.3021 9.11699 13.4986 9.30605 12.8025 9.57676C12.0764 9.86035 11.4619 10.2342 10.8517 10.8486C10.2373 11.4588 9.86346 12.0732 9.57987 12.7951C9.30917 13.4955 9.12011 14.2947 9.06854 15.4635C9.01698 16.6408 9.00409 17.0146 9.00409 20.001C9.00409 22.9873 9.01698 23.3611 9.06854 24.5342C9.12011 25.7029 9.30917 26.5064 9.57987 27.2025C9.86346 27.9287 10.2373 28.5432 10.8517 29.1533C11.4619 29.7635 12.0764 30.1416 12.7982 30.4209C13.4986 30.6916 14.2978 30.8807 15.4666 30.9322C16.6396 30.9838 17.0135 30.9967 19.9998 30.9967C22.9861 30.9967 23.36 30.9838 24.533 30.9322C25.7017 30.8807 26.5053 30.6916 27.2014 30.4209C27.9232 30.1416 28.5377 29.7635 29.1478 29.1533C29.758 28.5432 30.1361 27.9287 30.4154 27.2068C30.6861 26.5064 30.8752 25.7072 30.9268 24.5385C30.9783 23.3654 30.9912 22.9916 30.9912 20.0053C30.9912 17.0189 30.9783 16.6451 30.9268 15.4721C30.8752 14.3033 30.6861 13.4998 30.4154 12.8037C30.1447 12.0732 29.7709 11.4588 29.1564 10.8486C28.5463 10.2385 27.9318 9.86035 27.21 9.58105C26.5096 9.31035 25.7103 9.12129 24.5416 9.06973C23.3642 9.01387 22.9904 9.00098 20.0041 9.00098Z" fill="white"/>
<path d="M20.0021 14.3496C16.8826 14.3496 14.3517 16.8805 14.3517 20C14.3517 23.1195 16.8826 25.6504 20.0021 25.6504C23.1217 25.6504 25.6525 23.1195 25.6525 20C25.6525 16.8805 23.1217 14.3496 20.0021 14.3496ZM20.0021 23.6652C17.9783 23.6652 16.3369 22.0238 16.3369 20C16.3369 17.9762 17.9783 16.3348 20.0021 16.3348C22.026 16.3348 23.6674 17.9762 23.6674 20C23.6674 22.0238 22.026 23.6652 20.0021 23.6652Z" fill="white"/>
<path d="M27.201 14.1268C27.201 14.8572 26.608 15.4459 25.8818 15.4459C25.1514 15.4459 24.5627 14.8529 24.5627 14.1268C24.5627 13.3963 25.1557 12.8076 25.8818 12.8076C26.608 12.8076 27.201 13.4006 27.201 14.1268Z" fill="white"/>
</g>
<defs>
<clipPath id="clip0_877_41">
<rect width="22" height="22" fill="white" transform="translate(9 9)"/>
</clipPath>
</defs>
</svg>
