<svg width="16" height="17" viewBox="0 0 16 17" fill="none" xmlns="http://www.w3.org/2000/svg">
<path fill-rule="evenodd" clip-rule="evenodd" d="M8.18304 3C5.7822 3 3.83594 4.94626 3.83594 7.3471C3.83594 8.5787 4.66566 10.0112 5.70657 11.2968C6.64165 12.4517 7.67382 13.4002 8.18304 13.8443C8.69225 13.4002 9.72443 12.4517 10.6595 11.2968C11.7004 10.0112 12.5301 8.5787 12.5301 7.3471C12.5301 4.94626 10.5839 3 8.18304 3ZM2.83594 7.3471C2.83594 4.39398 5.22992 2 8.18304 2C11.1362 2 13.5301 4.39398 13.5301 7.3471C13.5301 8.95248 12.4918 10.6229 11.4367 11.9261C10.3612 13.2544 9.17328 14.3143 8.70705 14.7131C8.40428 14.9721 7.9618 14.9721 7.65903 14.7131C7.1928 14.3143 6.00492 13.2544 4.92939 11.9261C3.87425 10.6229 2.83594 8.95248 2.83594 7.3471ZM8.18323 6.09686C7.60423 6.09686 7.13486 6.56623 7.13486 7.14523C7.13486 7.72424 7.60423 8.19361 8.18323 8.19361C8.76224 8.19361 9.23161 7.72424 9.23161 7.14523C9.23161 6.56623 8.76224 6.09686 8.18323 6.09686ZM6.13486 7.14523C6.13486 6.01395 7.05195 5.09686 8.18323 5.09686C9.31452 5.09686 10.2316 6.01395 10.2316 7.14523C10.2316 8.27652 9.31452 9.19361 8.18323 9.19361C7.05195 9.19361 6.13486 8.27652 6.13486 7.14523Z" fill="#353847"/>
</svg>
