<svg width="89" height="34" viewBox="0 0 89 34" fill="none" xmlns="http://www.w3.org/2000/svg">
<path d="M4.6504 4.62412H0.48128V1.02941H13.6372V4.62412H9.46805V14H4.6504V4.62412ZM18.8119 9.29353H21.5172L20.1461 5.60618L18.8119 9.29353ZM17.7558 12.1656L17.0516 14H12.1969L17.9225 1.02941H22.3881L28.1137 14H23.259L22.5549 12.1656H17.7558ZM34.1543 6.10647L36.6002 1.02941H41.6958L36.3222 9.46029V14H31.5046V9.46029L26.1496 1.02941H31.6528L34.1543 6.10647ZM49.3361 6.10647L51.782 1.02941H56.8776L51.504 9.46029V14H46.6864V9.46029L41.3314 1.02941H46.8346L49.3361 6.10647ZM66.5253 4.88353C65.9941 4.37706 65.3209 4.12382 64.5056 4.12382C63.6903 4.12382 63.0171 4.37706 62.4859 4.88353C61.893 5.47647 61.5965 6.35353 61.5965 7.51471C61.5965 8.67588 61.893 9.55294 62.4859 10.1459C63.0171 10.6524 63.6903 10.9056 64.5056 10.9056C65.3209 10.9056 65.9941 10.6524 66.5253 10.1459C67.1183 9.55294 67.4147 8.67588 67.4147 7.51471C67.4147 6.35353 67.1183 5.47647 66.5253 4.88353ZM71.9544 4.47588C72.3868 5.30353 72.603 6.31647 72.603 7.51471C72.603 8.71294 72.3868 9.72588 71.9544 10.5535C71.5344 11.3812 71.0403 12.0297 70.4721 12.4991C69.0144 13.7344 67.0256 14.3521 64.5056 14.3521C61.9856 14.3521 59.9968 13.7344 58.5391 12.4991C57.9709 12.0297 57.4706 11.3812 57.0383 10.5535C56.6183 9.72588 56.4083 8.71294 56.4083 7.51471C56.4083 6.31647 56.6183 5.30353 57.0383 4.47588C57.4706 3.64824 57.9709 2.99971 58.5391 2.53029C59.9968 1.295 61.9856 0.677352 64.5056 0.677352C67.0256 0.677352 69.0144 1.295 70.4721 2.53029C71.0403 2.99971 71.5344 3.64824 71.9544 4.47588ZM79.7387 4.17941V6.73647H82.129C82.7096 6.73647 83.1419 6.63147 83.426 6.42147C83.7348 6.19912 83.8893 5.85324 83.8893 5.38382C83.8893 4.96382 83.7287 4.64882 83.4075 4.43882C83.1604 4.26588 82.7219 4.17941 82.0919 4.17941H79.7387ZM74.921 14V1.02941H83.4631C85.1431 1.02941 86.4031 1.33206 87.2431 1.93735C88.1448 2.62912 88.5957 3.59882 88.5957 4.84647C88.5957 5.77294 88.3178 6.51412 87.7619 7.07C87.3419 7.52706 86.8169 7.84206 86.1869 8.015V8.10765C86.854 8.26824 87.3666 8.54 87.7248 8.92294C87.7866 8.99706 87.8422 9.07118 87.8916 9.14529C87.9534 9.20706 88.0028 9.28118 88.0398 9.36765C88.0769 9.45412 88.1078 9.52824 88.1325 9.59C88.1696 9.65176 88.2004 9.73206 88.2251 9.83088C88.2498 9.92971 88.2684 10.0038 88.2807 10.0532C88.2931 10.1026 88.3054 10.1891 88.3178 10.3126C88.3301 10.4238 88.3363 10.4979 88.3363 10.535C88.3363 10.5721 88.3425 10.6585 88.3548 10.7944C88.3672 10.9303 88.3734 11.0106 88.3734 11.0353L88.429 12.0915C88.466 12.5362 88.5154 12.8882 88.5772 13.1476C88.639 13.3947 88.7687 13.6788 88.9663 14H84.056C83.7225 13.6047 83.5434 13.0735 83.5187 12.4065L83.4816 11.6282C83.4569 10.8376 83.2716 10.3003 82.9257 10.0162C82.6293 9.75676 82.0672 9.62706 81.2396 9.62706H79.7387V14H74.921ZM8.11815 27.7191V30.0724H10.7493C11.3546 30.0724 11.7746 29.9797 12.0093 29.7944C12.2934 29.5597 12.4355 29.2571 12.4355 28.8865C12.4355 28.4912 12.2749 28.1885 11.9537 27.9785C11.6449 27.8056 11.2249 27.7191 10.6937 27.7191H8.11815ZM8.11815 22.9571V25.0324H10.5084C10.9779 25.0324 11.3299 24.9521 11.5646 24.7915C11.824 24.6185 11.9537 24.3468 11.9537 23.9762C11.9537 23.6056 11.8302 23.34 11.5831 23.1794C11.3608 23.0312 11.0458 22.9571 10.6381 22.9571H8.11815ZM3.3005 20.0294H11.8796C13.5596 20.0294 14.7393 20.2332 15.4187 20.6409C16.2958 21.2462 16.7343 22.0676 16.7343 23.1053C16.7343 23.8959 16.4626 24.5629 15.919 25.1065C15.5361 25.4894 14.974 25.8044 14.2329 26.0515V26.1256C15.1099 26.2985 15.814 26.6012 16.3452 27.0335C17.074 27.6265 17.4384 28.4294 17.4384 29.4424C17.4384 30.5665 17.0184 31.4559 16.1784 32.1106C15.4373 32.7035 14.0537 33 12.0279 33H3.3005V20.0294ZM19.749 20.0294H24.5666V33H19.749V20.0294ZM33.7514 23.5871H27.3032V20.0294H39.8661V22.9015L32.4914 29.4424H40.107V33H26.877V29.6462L33.7514 23.5871ZM47.1286 25.9218H46.9433L47.1286 27.4226V33H42.4222V20.0294H46.8507L51.8351 27.1262H52.0204L51.8351 25.6253V20.0294H56.5416V33H52.1131L47.1286 25.9218ZM64.5026 24.9212H70.9137V27.9785H64.5026V29.5721H72.6926V33H59.6849V20.0294H72.5073V23.4574H64.5026V24.9212ZM74.0829 28.7197H78.7893V28.7938C78.7893 29.3003 78.9623 29.6894 79.3081 29.9612C79.654 30.2329 80.1729 30.3688 80.8646 30.3688C81.507 30.3688 81.9826 30.2947 82.2914 30.1465C82.7114 29.9488 82.9214 29.64 82.9214 29.22C82.9214 28.8 82.662 28.4974 82.1431 28.3121C81.822 28.2009 81.3093 28.0897 80.6052 27.9785L79.2155 27.7376C77.3131 27.4165 76.047 27.0274 75.417 26.5703C74.614 25.9774 74.2126 25.1497 74.2126 24.0874C74.2126 22.6791 74.8302 21.5797 76.0655 20.7891C77.1773 20.0603 78.7337 19.6959 80.7349 19.6959C82.8226 19.6959 84.3914 20.0232 85.4414 20.6779C86.6767 21.4562 87.2573 22.5309 87.1831 23.9021H82.6064V23.8465C82.6064 23.4512 82.4334 23.1424 82.0876 22.92C81.7787 22.7471 81.3093 22.6606 80.6793 22.6606C80.1358 22.6606 79.7281 22.7347 79.4564 22.8829C79.0858 23.0929 78.9005 23.3524 78.9005 23.6612C78.9005 24.0194 79.1167 24.2665 79.549 24.4024C79.8084 24.5012 80.4384 24.6247 81.439 24.7729L82.9399 25.0138C84.5705 25.2979 85.7379 25.6994 86.442 26.2182C87.2943 26.8729 87.7205 27.8056 87.7205 29.0162C87.7205 30.1897 87.3499 31.1471 86.6087 31.8882C85.9911 32.5059 85.2067 32.9135 84.2555 33.1112C83.3167 33.3088 82.1987 33.4076 80.9017 33.4076C78.567 33.4076 76.8746 33.0432 75.8246 32.3144C74.6634 31.5115 74.0829 30.3441 74.0829 28.8124V28.7197Z" fill="#1D2023"/>
</svg>
