<svg width="40" height="40" viewBox="0 0 40 40" fill="none" xmlns="http://www.w3.org/2000/svg">
<rect width="40" height="40" rx="10" fill="#434343"/>
<g clip-path="url(#clip0_877_36)">
<path fill-rule="evenodd" clip-rule="evenodd" d="M31 20.001C31 26.0761 26.0751 31.001 20 31.001C13.9249 31.001 9 26.0761 9 20.001C9 13.9258 13.9249 9.00098 20 9.00098C26.0751 9.00098 31 13.9258 31 20.001ZM20.3924 17.1217C19.3225 17.5667 17.1842 18.4878 13.9775 19.8849C13.4568 20.092 13.184 20.2946 13.1591 20.4927C13.1172 20.8274 13.5364 20.9592 14.1073 21.1387C14.1849 21.1632 14.2654 21.1885 14.3478 21.2153C14.9095 21.3978 15.665 21.6114 16.0578 21.6199C16.414 21.6276 16.8117 21.4807 17.2507 21.1793C20.2468 19.1568 21.7934 18.1345 21.8905 18.1125C21.959 18.097 22.054 18.0774 22.1183 18.1346C22.1826 18.1917 22.1763 18.3 22.1695 18.3291C22.1279 18.5061 20.4823 20.036 19.6308 20.8277C19.3653 21.0745 19.177 21.2496 19.1385 21.2895C19.0522 21.3791 18.9644 21.4638 18.8799 21.5453C18.3581 22.0483 17.9668 22.4255 18.9016 23.0414C19.3507 23.3374 19.7102 23.5822 20.0688 23.8264C20.4604 24.0931 20.851 24.3591 21.3564 24.6904C21.4851 24.7748 21.6081 24.8625 21.7279 24.9479C22.1836 25.2728 22.5931 25.5647 23.0989 25.5181C23.3929 25.4911 23.6965 25.2147 23.8507 24.3904C24.2151 22.4423 24.9314 18.2213 25.0969 16.4819C25.1114 16.3296 25.0932 16.1345 25.0785 16.0489C25.0639 15.9633 25.0333 15.8413 24.922 15.751C24.7902 15.6441 24.5867 15.6215 24.4957 15.6231C24.082 15.6304 23.4472 15.8511 20.3924 17.1217Z" fill="white"/>
</g>
<defs>
<clipPath id="clip0_877_36">
<rect width="22" height="22" fill="white" transform="translate(9 9)"/>
</clipPath>
</defs>
</svg>
