<svg width="40" height="40" viewBox="0 0 40 40" fill="none" xmlns="http://www.w3.org/2000/svg">
<rect width="40" height="40" rx="10" fill="#434343"/>
<g clip-path="url(#clip0_877_52)">
<path d="M30.777 15.6004C30.777 15.6004 30.5621 14.0836 29.9004 13.4176C29.0625 12.541 28.1258 12.5367 27.6961 12.4852C24.6195 12.2617 20.0004 12.2617 20.0004 12.2617H19.9918C19.9918 12.2617 15.3727 12.2617 12.2961 12.4852C11.8664 12.5367 10.9297 12.541 10.0918 13.4176C9.43008 14.0836 9.21953 15.6004 9.21953 15.6004C9.21953 15.6004 8.99609 17.3836 8.99609 19.1625V20.8297C8.99609 22.6086 9.21523 24.3918 9.21523 24.3918C9.21523 24.3918 9.43008 25.9086 10.0875 26.5746C10.9254 27.4512 12.0254 27.4211 12.5152 27.5156C14.277 27.6832 19.9961 27.7348 19.9961 27.7348C19.9961 27.7348 24.6195 27.7262 27.6961 27.507C28.1258 27.4555 29.0625 27.4512 29.9004 26.5746C30.5621 25.9086 30.777 24.3918 30.777 24.3918C30.777 24.3918 30.9961 22.6129 30.9961 20.8297V19.1625C30.9961 17.3836 30.777 15.6004 30.777 15.6004ZM17.723 22.8535V16.6703L23.6656 19.7727L17.723 22.8535Z" fill="white"/>
</g>
<defs>
<clipPath id="clip0_877_52">
<rect width="22" height="22" fill="white" transform="translate(9 9)"/>
</clipPath>
</defs>
</svg>
